<svg width="119" height="34" viewBox="0 0 119 34" fill="none" xmlns="http://www.w3.org/2000/svg">
<mask id="mask0_131_854" style="mask-type:luminance" maskUnits="userSpaceOnUse" x="0" y="4" width="108" height="20">
<path d="M107.803 4.80908H0V23.197H107.803V4.80908Z" fill="white"/>
</mask>
<g mask="url(#mask0_131_854)">
<path d="M31.6618 5.59587C31.4123 5.37141 31.1191 5.22236 30.8347 5.17501C30.641 5.14344 29.9778 5.13117 29.58 5.13117L29.1737 5.1294C29.0209 5.12874 28.9412 5.31114 29.0443 5.42402C29.573 6.00271 30.0948 6.57614 30.6165 7.14957L30.6916 7.23199C31.4803 8.09827 33.0578 9.82557 33.0578 9.82557L36.691 13.7799C36.8445 13.9465 36.8445 14.2078 36.691 14.3744L33.0718 18.3183C33.0369 18.3568 29.5747 22.1341 29.1245 22.6321L29.0425 22.7223C28.9391 22.8358 29.0212 23.0179 29.1746 23.0158L30.0319 23.0039C30.1907 23.0074 30.9935 23.0179 31.2657 22.8513C31.4768 22.7216 31.5205 22.683 31.6095 22.5953L31.6513 22.5532C31.9759 22.2393 32.6652 21.487 34.7121 19.2529L35.3508 18.5567C36.5915 17.203 37.2686 16.4647 38.0434 15.6212C39.0119 14.5673 39.0119 13.5853 38.0434 12.5314C36.15 10.4691 31.7421 5.67128 31.6583 5.59412L31.6618 5.59587Z" fill="white"/>
<path d="M46.5737 18.3165L42.9552 14.3726C42.8016 14.206 42.8016 13.9448 42.9552 13.7782L46.5877 9.82381C46.5877 9.82381 48.1666 8.09651 48.9553 7.23023C49.5014 6.6305 50.0492 6.02901 50.6023 5.42402C50.7053 5.31114 50.6256 5.12874 50.4728 5.1294L50.0667 5.13117C49.6689 5.13117 49.0059 5.14344 48.8122 5.17501C48.5278 5.22236 48.2347 5.37141 47.9852 5.59587C47.9067 5.66777 43.9531 9.97112 41.6012 12.5331C40.6329 13.587 40.6329 14.569 41.6012 15.623C42.3759 16.4664 43.0529 17.2047 44.2934 18.5585L44.9494 19.2757C46.982 21.494 47.6677 22.2428 47.9922 22.555L48.0393 22.6006C48.123 22.6847 48.1649 22.7233 48.3778 22.8513C48.6499 23.0179 49.4525 23.0074 49.606 23.0039L50.4702 23.0158C50.6237 23.018 50.7057 22.8359 50.6024 22.7224L50.5203 22.6321C50.0701 22.1358 46.6086 18.3568 46.5737 18.3183V18.3165Z" fill="white"/>
<path d="M15.9695 6.53087V7.30627C15.9678 7.87115 15.966 9.52721 15.966 10.578C15.966 12.799 15.9502 14.4796 15.9257 14.7603C15.6801 17.604 13.7786 20.0144 11.0843 20.9038C10.33 21.1529 9.75115 21.2476 8.94776 21.2529C8.14262 21.2459 7.56201 21.1511 6.80949 20.902C4.11516 20.0144 2.21545 17.6022 1.96812 14.7603C1.94356 14.4813 1.92778 12.8007 1.92778 10.578L1.92427 6.53087C1.9155 5.3748 1.25244 5.1292 0.696386 5.1292H0.175429C0.0785421 5.1292 0 5.20774 0 5.30462V12.8463C0.00350824 13.5516 0.014033 14.7673 0.0350824 14.9883C0.324512 18.1373 2.18563 20.8547 5.01503 22.2581C5.93068 22.7107 6.79371 22.9809 7.8146 23.1282C8.10403 23.1703 8.50573 23.1949 8.94776 23.1966C9.38805 23.1949 9.78974 23.1703 10.0792 23.1282C11.1001 22.9791 11.9631 22.7107 12.8787 22.2581C15.7081 20.8564 17.5693 18.1373 17.8587 14.9883C17.8797 14.7673 17.8885 13.5516 17.8938 12.8463V5.30287C17.8938 5.20598 17.8152 5.12744 17.7183 5.12744H17.1974C16.6431 5.12744 15.9783 5.37304 15.9695 6.53087Z" fill="white"/>
<path d="M77.6504 10.143C76.2488 7.31329 73.53 5.45199 70.3813 5.16253C70.1603 5.14148 68.9447 5.1327 68.2396 5.12744H61.5757C61.4788 5.12744 61.4003 5.20598 61.4003 5.30287V5.8239C61.4003 6.37825 61.6458 7.04313 62.8036 7.0519H63.5789C64.1437 7.05365 64.9225 7.05541 65.9732 7.05541C68.1939 7.05541 69.8744 7.0712 70.155 7.09576C72.9985 7.34136 75.4086 9.24301 76.2979 11.9376C76.547 12.6902 76.6418 13.2709 76.647 14.0743C76.64 14.8795 76.5453 15.4602 76.2962 16.2128C75.4086 18.9074 72.9967 20.8073 70.155 21.0547C69.8761 21.0792 68.1957 21.095 65.9732 21.095L62.8036 21.0985C61.6476 21.1073 61.402 21.7704 61.402 22.3265V22.8458C61.402 22.9427 61.4806 23.0212 61.5774 23.0212H68.2431C69.1043 23.016 70.1761 23.0054 70.3848 22.9879C73.5335 22.6984 76.2506 20.8371 77.6539 18.0075C78.1064 17.0917 78.3766 16.2286 78.5239 15.2076C78.566 14.9181 78.5906 14.5164 78.5923 14.0743C78.5906 13.634 78.566 13.2323 78.5239 12.9428C78.3748 11.9218 78.1064 11.0587 77.6539 10.143H77.6504Z" fill="white"/>
<path d="M103.163 13.8938L99.073 5.9135C98.6361 5.06793 97.9641 4.9539 97.3641 4.95215C96.7641 4.95215 96.0939 5.06793 95.6571 5.9135L91.5675 13.892C88.9295 19.0404 87.4375 21.9679 87.0913 22.6743L87.0456 22.7655C86.9871 22.8822 87.0719 23.0196 87.2024 23.0196H87.5533C87.6779 23.0196 87.8252 23.0196 87.9814 23.0196H88.0007C88.6165 23.0196 89.1481 23.0196 89.4744 22.3986C89.9481 21.5004 91.6236 18.2356 93.4605 14.6376C94.3149 12.9622 95.1939 11.2676 96.043 9.62909C96.4308 8.88176 96.8185 8.13268 97.2062 7.38184C97.2361 7.3222 97.2957 7.28711 97.3624 7.28711C97.429 7.28711 97.4869 7.3222 97.5185 7.38184C97.9677 8.25373 98.4203 9.12385 98.8712 9.99574C99.6589 11.5167 100.475 13.0886 101.266 14.6393C103.103 18.2374 104.778 21.5021 105.252 22.4003C105.578 23.0214 106.11 23.0214 106.726 23.0214H106.745C106.901 23.0214 107.049 23.0214 107.173 23.0214H107.203C107.235 23.0214 107.384 23.0214 107.525 23.0214C107.654 23.0214 107.738 22.887 107.681 22.7712C107.666 22.7407 107.649 22.7067 107.631 22.669C107.276 21.9504 105.786 19.0253 103.159 13.8938H103.163Z" fill="white"/>
</g>
<path d="M111.864 9.02867C113.446 9.02867 114.728 7.74655 114.728 6.16497C114.728 4.58339 113.446 3.30127 111.864 3.30127C110.282 3.30127 109 4.58339 109 6.16497C109 7.74655 110.282 9.02867 111.864 9.02867Z" stroke="white" stroke-width="0.350858"/>
<path d="M111 7.99994V4.56152H112.12C112.302 4.56152 112.466 4.60573 112.614 4.69415C112.761 4.78093 112.877 4.89963 112.962 5.05027C113.049 5.2009 113.093 5.36955 113.093 5.55621C113.093 5.72977 113.056 5.88613 112.982 6.0253C112.91 6.16448 112.812 6.27909 112.687 6.36915C112.563 6.45756 112.424 6.51323 112.27 6.53615L113.115 7.99994H112.808L111.968 6.55335H111.265V7.99994H111ZM111.265 6.2881H112.103C112.235 6.2881 112.357 6.25617 112.466 6.19231C112.576 6.12682 112.664 6.0384 112.729 5.92706C112.795 5.81573 112.827 5.68883 112.827 5.54638C112.827 5.40557 112.795 5.2795 112.729 5.16816C112.664 5.05518 112.576 4.96677 112.466 4.90291C112.357 4.83742 112.235 4.80467 112.103 4.80467H111.265V6.2881Z" fill="white"/>
</svg>
